# xmcd
#
# Track frame offsets:
#	150
#	14226
#	32944
#	49460
#	68112
#	85969
#	105743
#	124259
#	148605
#	171330
#	193497
#	216543
#	241394
#	259369
#	279941
#
# Disc length: 3925 seconds
#
# Revision: 1
# Processed by: cddbd v1.5.2PL0 Copyright (c) Steve Scherf et al.
# Submitted via: audiograbber 1.83.01
#
DISCID=f90f530f
DTITLE=Ultra Dieez - Itinéraire bis
DYEAR=2009
DGENRE=
TTITLE0=Introduction
TTITLE1=Nos ombres
TTITLE2=Itinéraire bis
TTITLE3=Les oiseaux
TTITLE4=Mes aveux
TTITLE5=Lou es tu là
TTITLE6=Sûr de rien
TTITLE7=Tant que
TTITLE8=Section marché
TTITLE9=Des paillettes
TTITLE10=Météo
TTITLE11=Vue d'ici
TTITLE12=Récréation
TTITLE13=Hors la loi
TTITLE14=Hip
EXTD=
EXTT0=
EXTT1=
EXTT2=
EXTT3=
EXTT4=
EXTT5=
EXTT6=
EXTT7=
EXTT8=
EXTT9=
EXTT10=
EXTT11=
EXTT12=
EXTT13=
EXTT14=
PLAYORDER=
